<?xml version="1.0" standalone="no"?>
<!DOCTYPE svg PUBLIC "-//W3C//DTD SVG 20010904//EN"
 "http://www.w3.org/TR/2001/REC-SVG-20010904/DTD/svg10.dtd">
<svg version="1.0" xmlns="http://www.w3.org/2000/svg"
 width="225.000000pt" height="225.000000pt" viewBox="0 0 225.000000 225.000000"
 preserveAspectRatio="xMidYMid meet">
<metadata>
Created by potrace 1.16, written by Peter Selinger 2001-2019
</metadata>
<g transform="translate(0.000000,225.000000) scale(0.100000,-0.100000)"
fill="#000000" stroke="none">
<path d="M228 2221 l-33 -29 0 -1067 0 -1067 33 -29 32 -29 865 0 865 0 32 29
33 29 0 1067 0 1067 -33 29 -32 29 -865 0 -865 0 -32 -29z m1766 -37 c14 -14
16 -124 16 -1059 0 -935 -2 -1045 -16 -1059 -14 -14 -106 -16 -869 -16 -763 0
-855 2 -869 16 -14 14 -16 124 -16 1059 0 935 2 1045 16 1059 14 14 106 16
869 16 763 0 855 -2 869 -16z"/>
<path d="M750 2110 c-11 -11 -20 -24 -20 -30 0 -5 -11 -10 -23 -10 -30 0 -54
-27 -59 -65 l-3 -30 -138 -5 c-108 -4 -140 -8 -147 -20 -6 -9 -10 -364 -10
-907 l0 -892 22 -15 c20 -14 108 -16 753 -16 645 0 733 2 753 16 l22 15 0 892
c0 543 -4 898 -10 907 -7 12 -39 16 -147 20 l-138 5 -3 30 c-5 38 -29 65 -59
65 -12 0 -23 5 -23 10 0 6 -9 19 -20 30 -19 19 -33 20 -375 20 -342 0 -356 -1
-375 -20z m720 -60 l0 -30 -345 0 -345 0 0 30 0 30 345 0 345 0 0 -30z m-735
-41 c4 -11 18 -24 32 -30 13 -5 173 -9 358 -9 185 0 345 4 358 9 14 6 28 19
32 30 3 12 13 21 21 21 12 0 14 -15 12 -77 l-3 -78 -420 0 -420 0 -3 78 c-2
62 0 77 12 77 8 0 18 -9 21 -21z m-85 -111 c0 -17 7 -40 17 -50 15 -17 43 -18
456 -18 491 0 477 -2 477 67 l0 34 128 -3 127 -3 0 -875 0 -875 -730 0 -730 0
-3 865 c-1 476 0 871 3 878 3 9 39 12 130 12 l125 0 0 -32z"/>
<path d="M1474 1717 c-2 -7 -3 -74 -2 -148 l3 -134 150 0 150 0 0 145 0 145
-148 3 c-115 2 -149 0 -153 -11z m256 -142 l0 -105 -105 0 -105 0 0 105 0 105
105 0 105 0 0 -105z"/>
<path d="M475 1650 c-4 -6 -1 -17 5 -25 11 -13 80 -15 454 -15 448 0 472 2
459 36 -4 12 -83 14 -458 14 -305 0 -456 -3 -460 -10z"/>
<path d="M475 1530 c-17 -27 16 -30 321 -30 295 0 315 1 312 18 -3 16 -27 17
-315 20 -203 1 -314 -1 -318 -8z"/>
<path d="M1474 1327 c-2 -7 -3 -74 -2 -148 l3 -134 150 0 150 0 0 145 0 145
-148 3 c-115 2 -149 0 -153 -11z m256 -132 l0 -105 -105 0 -105 0 0 105 0 105
105 0 105 0 0 -105z"/>
<path d="M480 1265 c-6 -8 -9 -19 -5 -25 4 -7 155 -10 460 -10 375 0 454 2
458 14 13 34 -11 36 -459 36 -374 0 -443 -2 -454 -15z"/>
<path d="M480 1145 c-6 -8 -9 -19 -5 -25 4 -6 112 -10 316 -10 275 0 310 2
316 16 3 9 0 20 -8 25 -8 5 -147 9 -310 9 -248 0 -299 -2 -309 -15z"/>
<path d="M1474 947 c-2 -7 -3 -76 -2 -152 l3 -140 139 -3 c93 -2 143 1 152 9
11 9 14 42 14 139 0 71 -3 135 -6 144 -5 14 -28 16 -150 16 -109 0 -146 -3
-150 -13z m256 -142 l0 -105 -105 0 -105 0 0 105 0 105 105 0 105 0 0 -105z"/>
<path d="M478 878 c-14 -38 -9 -38 452 -38 359 0 450 3 459 13 28 35 -3 37
-460 37 -348 0 -448 -3 -451 -12z"/>
<path d="M477 757 c-13 -36 3 -37 319 -35 301 3 309 3 309 23 0 20 -8 20 -311
23 -255 2 -313 0 -317 -11z"/>
<path d="M1474 557 c-2 -7 -3 -74 -2 -148 l3 -134 150 0 150 0 0 145 0 145
-148 3 c-115 2 -149 0 -153 -11z m256 -142 l0 -105 -105 0 -105 0 0 105 0 105
105 0 105 0 0 -105z"/>
<path d="M475 490 c-4 -6 -1 -17 5 -25 11 -13 79 -15 447 -15 275 0 441 4 453
10 11 6 17 17 14 25 -5 13 -68 15 -459 15 -305 0 -456 -3 -460 -10z"/>
<path d="M475 370 c-17 -27 16 -30 321 -30 295 0 315 1 312 18 -3 16 -27 17
-315 20 -203 1 -314 -1 -318 -8z"/>
</g>
</svg>
